<svg width="47" height="25" fill="none" xmlns="http://www.w3.org/2000/svg"><g clip-path="url(#a)" fill-rule="evenodd" clip-rule="evenodd"><path d="M19.227 24.558h5.72L36 5.492 33.154.632 19.227 24.56ZM47.012 24.558h-5.721l-6.442-11.133 2.837-4.883 9.326 16.017Z" fill="#373739"/><path d="M8.635 14.2h8.62l.024-3.193L8.65 11l-.016 3.2ZM2.86 1.643C4.687.387 6.35.577 8.429.577h8.889l-.038 4.654H6.803c-.89.008-1.619.213-2.071 1.043-.307.569-.2 1.335-.2 1.952l-.007 1.698H0V7.001c0-.198.023-.411.046-.632.115-1.897 1.32-3.698 2.815-4.726ZM2.86 23.563c1.826 1.256 3.49 1.067 5.568 1.067h8.889l-.038-4.654H6.803c-.89-.008-1.619-.214-2.071-1.044-.307-.569-.2-1.335-.2-1.951l-.007-1.7H0v2.925c0 .197.023.41.046.632.115 1.888 1.32 3.69 2.815 4.725Z" fill="#FA9F34"/></g><defs><clipPath id="a"><path fill="#fff" transform="translate(0 .49)" d="M0 0h46.943v24.067H0z"/></clipPath></defs></svg>