<svg width="20" height="19" fill="none" xmlns="http://www.w3.org/2000/svg"><g clip-path="url(#a)"><path d="M8.832 10.82a10.83 10.83 0 0 0 3.906 2.395l1.99-1.5a.367.367 0 0 1 .4 0l3.695 2.255c.14.08.26.19.347.32a.952.952 0 0 1 .097.889.999.999 0 0 1-.27.381l-1.73 1.62a2.138 2.138 0 0 1-.888.496 2.223 2.223 0 0 1-1.029.039c-3.402-.666-6.54-2.225-9.05-4.5-2.457-2.297-4.156-5.22-4.893-8.415a1.795 1.795 0 0 1 .044-.96c.101-.31.286-.592.536-.815l1.795-1.64c.11-.108.246-.191.396-.243a1.11 1.11 0 0 1 .914.09c.136.079.25.186.336.313L7.888 5a.304.304 0 0 1 0 .375L6.268 7.22a9.866 9.866 0 0 0 2.564 3.6Z" fill="#373739"/></g><defs><clipPath id="a"><path fill="#fff" transform="translate(.8 .5)" d="M0 0h19v18H0z"/></clipPath></defs></svg>