<svg width="20" height="20" fill="none" xmlns="http://www.w3.org/2000/svg"><path d="M7.285 7.235c-.894.76-1.222 2.146-.45 3.257a10.68 10.68 0 0 0 2.673 2.673c1.112.772 2.498.444 3.258-.45l.008.004c.97.45 2.001.758 3.06.915v2.2h-.004C9.185 15.842 4.16 10.758 4.167 4.17v-.003h2.2a11.18 11.18 0 0 0 .914 3.059l.004.009ZM15.832 17.5h.835c.46 0 .833-.373.833-.833v-3.752a.833.833 0 0 0-.711-.824l-.712-.106a9.513 9.513 0 0 1-2.602-.778l-.628-.291a.833.833 0 0 0-1.028.272l-.284.397c-.25.349-.724.455-1.076.211a9.013 9.013 0 0 1-2.255-2.254c-.244-.352-.138-.828.21-1.076l.398-.284a.833.833 0 0 0 .272-1.029l-.29-.628a9.514 9.514 0 0 1-.78-2.602L7.91 3.21a.833.833 0 0 0-.824-.711H3.333a.833.833 0 0 0-.833.833v.835C2.492 11.673 8.259 17.51 15.832 17.5Z" fill="#FA9F34"/></svg>