<svg width="116" height="115" fill="none" xmlns="http://www.w3.org/2000/svg"><path fill-rule="evenodd" clip-rule="evenodd" d="M99.528 115c8.823 0 15.972-7.149 15.972-15.972V15.972C115.5 7.15 108.351 0 99.528 0H16.472C7.652 0 .5 7.15.5 15.972v83.056C.5 107.85 7.652 115 16.472 115h83.056ZM95.73 37.884c.02.39-.05.825-.195 1.296-.876 4.21-8.595 15.41-10.93 18.799-.432.625-.68.985-.667.985-.452.766-.754 1.314-.783 1.89-.028.548.195 1.121.783 1.934.878 1.246 2.786 3.538 4.72 5.853 3.49 4.18 6.29 8.565 6.9 10.359.128.489.185.928.175 1.32-.044 1.542-1.141 2.336-3.053 2.336h-8.232c-2.169 0-3.307-1.478-5.627-4.49-1.017-1.321-2.261-2.938-3.92-4.853-4.717-5.451-7.16-6.23-8.358-6.23-1.68 0-2.255.415-2.258 2.91v9.256c0 2.077-.54 3.407-5.817 3.407-8.71 0-18.55-5.84-26.018-15.962-10.298-13.96-12.184-26.1-12.184-28.346 0-1.246.399-2.41 2.798-2.41h8.311c2.079 0 2.877.915 3.676 3.326 3.688 12.246 9.198 21.59 11.996 21.59 1.038 0 1.519-.498 1.519-3.239V46.331c-.198-3.59-1.348-5.156-2.2-6.316-.53-.72-.944-1.285-.944-2.081 0-1 .666-1.996 1.946-1.996h14.619c1.758 0 2.301.996 2.301 3.158v16.149c0 1.828 1.406 2.495 1.963 2.495h.074c1.01 0 1.984.002 3.856-1.947 5.915-6.899 11.047-17.36 11.047-17.36.56-1.25 1.519-2.495 3.597-2.495h8.232c1.843 0 2.626.819 2.673 1.946Z" fill="#E3E3E3"/></svg>