<svg width="116" height="115" fill="none" xmlns="http://www.w3.org/2000/svg"><path d="M58.014 0h-.028C26.282 0 .5 25.789.5 57.5c0 12.578 4.054 24.236 10.947 33.702L4.28 112.563l22.101-7.065C35.474 111.521 46.32 115 58.014 115c31.704 0 57.486-25.796 57.486-57.5S89.718 0 58.014 0Zm33.458 81.197c-1.387 3.917-6.893 7.166-11.284 8.115-3.005.64-6.929 1.15-20.14-4.327-16.897-7-27.78-24.172-28.627-25.286-.813-1.114-6.828-9.092-6.828-17.343s4.19-12.27 5.879-13.994c1.387-1.416 3.68-2.063 5.88-2.063.71 0 1.35.036 1.926.065 1.689.072 2.537.172 3.65 2.839 1.388 3.342 4.766 11.593 5.169 12.441.41.849.819 1.998.244 3.113-.54 1.15-1.014 1.66-1.862 2.637-.848.978-1.653 1.725-2.5 2.775-.777.913-1.654 1.89-.676 3.58.977 1.652 4.355 7.165 9.329 11.593 6.418 5.714 11.622 7.54 13.484 8.316 1.387.575 3.04.438 4.053-.64 1.287-1.387 2.875-3.687 4.493-5.951 1.15-1.625 2.601-1.826 4.125-1.251 1.553.539 9.768 4.6 11.457 5.44 1.69.849 2.803 1.251 3.213 1.963.402.712.402 4.054-.985 7.978Z" fill="#E3E3E3"/></svg>