<svg width="32" height="32" viewBox="0 0 32 32" fill="none" xmlns="http://www.w3.org/2000/svg">
<path class="burger" fill-rule="evenodd" clip-rule="evenodd" d="M4 8C4 7.17157 4.67157 6.5 5.5 6.5H26.5C27.3284 6.5 28 7.17157 28 8C28 8.82843 27.3284 9.5 26.5 9.5H5.5C4.67157 9.5 4 8.82843 4 8ZM4 16C4 15.1716 4.67157 14.5 5.5 14.5H26.5C27.3284 14.5 28 15.1716 28 16C28 16.8284 27.3284 17.5 26.5 17.5H5.5C4.67157 17.5 4 16.8284 4 16ZM4 24C4 23.1716 4.67157 22.5 5.5 22.5H26.5C27.3284 22.5 28 23.1716 28 24C28 24.8284 27.3284 25.5 26.5 25.5H5.5C4.67157 25.5 4 24.8284 4 24Z" fill="white"/>
</svg>
