<svg width="32" height="32" viewBox="0 0 32 32" fill="none" xmlns="http://www.w3.org/2000/svg">
<path d="M18.8173 15.9983L27.409 7.42536C27.7852 7.04906 27.9966 6.53869 27.9966 6.00653C27.9966 5.47437 27.7852 4.964 27.409 4.5877C27.0327 4.2114 26.5224 4 25.9903 4C25.4583 4 24.948 4.2114 24.5717 4.5877L16 13.1806L7.42828 4.5877C7.05204 4.2114 6.54174 4 6.00965 4C5.47757 4 4.96727 4.2114 4.59103 4.5877C4.21478 4.964 4.00341 5.47437 4.00341 6.00653C4.00341 6.53869 4.21478 7.04906 4.59103 7.42536L13.1827 15.9983L4.59103 24.5712C4.40375 24.757 4.25511 24.978 4.15367 25.2215C4.05223 25.4651 4 25.7263 4 25.9901C4 26.2539 4.05223 26.5151 4.15367 26.7586C4.25511 27.0021 4.40375 27.2231 4.59103 27.4089C4.77677 27.5962 4.99776 27.7449 5.24124 27.8463C5.48473 27.9478 5.74589 28 6.00965 28C6.27342 28 6.53458 27.9478 6.77807 27.8463C7.02155 27.7449 7.24254 27.5962 7.42828 27.4089L16 18.816L24.5717 27.4089C24.7575 27.5962 24.9785 27.7449 25.2219 27.8463C25.4654 27.9478 25.7266 28 25.9903 28C26.2541 28 26.5153 27.9478 26.7588 27.8463C27.0022 27.7449 27.2232 27.5962 27.409 27.4089C27.5962 27.2231 27.7449 27.0021 27.8463 26.7586C27.9478 26.5151 28 26.2539 28 25.9901C28 25.7263 27.9478 25.4651 27.8463 25.2215C27.7449 24.978 27.5962 24.757 27.409 24.5712L18.8173 15.9983Z" fill="#323232"/>
</svg>
