<svg width="96" height="96" viewBox="0 0 96 96" fill="none" xmlns="http://www.w3.org/2000/svg">
<path d="M48 21.1201C16.5072 21.1201 0 44.3137 0 48.0001C0 51.6769 16.5072 74.8801 48 74.8801C79.488 74.8801 96 51.6769 96 48.0001C96 44.3137 79.488 21.1201 48 21.1201ZM48 68.6737C36.216 68.6737 26.664 59.4193 26.664 48.0001C26.664 36.5809 36.216 27.3169 48 27.3169C59.784 27.3169 69.3312 36.5809 69.3312 48.0001C69.3312 59.4193 59.784 68.6737 48 68.6737ZM48 48.0001C46.0464 45.8545 51.1824 37.6609 48 37.6609C42.1056 37.6609 37.3296 42.2929 37.3296 48.0001C37.3296 53.7073 42.1056 58.3393 48 58.3393C53.8896 58.3393 58.6704 53.7073 58.6704 48.0001C58.6704 45.3745 49.6608 49.8193 48 48.0001Z" fill="white"/>
</svg>
