<svg width="123" height="60" fill="none" xmlns="http://www.w3.org/2000/svg"><g clip-path="url(#a)" fill-rule="evenodd" clip-rule="evenodd"><path d="M50.284 60.173h14.54L92.91 13.044 85.679 1.033l-35.395 59.14ZM120.897 60.172h-14.539L89.985 32.654l7.213-12.07 23.699 39.59Z" fill="#323232"/><path d="M23.368 34.568h21.907l.058-7.89-21.926-.02-.04 7.91ZM8.692 3.533C13.33.428 17.56.896 22.842.896h22.59L45.333 12.4H18.71c-2.261.02-4.113.527-5.263 2.578-.78 1.406-.506 3.301-.506 4.824l-.02 4.2h-11.5v-7.227c0-.488.06-1.016.118-1.562.292-4.688 3.352-9.141 7.153-11.68ZM8.692 57.712c4.639 3.106 8.868 2.637 14.15 2.637h22.59l-.098-11.504H18.71c-2.261-.02-4.113-.527-5.263-2.578-.78-1.406-.506-3.3-.506-4.824l-.02-4.2h-11.5v7.227c0 .489.06 1.016.118 1.563.292 4.668 3.352 9.12 7.153 11.68Z" fill="#FA9F34"/></g><defs><clipPath id="a"><path fill="#fff" d="M0 0h123v60H0z"/></clipPath></defs></svg>