<svg width="168" height="119" fill="none" xmlns="http://www.w3.org/2000/svg"><g clip-path="url(#a)" fill-rule="evenodd" clip-rule="evenodd"><path d="M69.089 83.2h19.963l38.562-65.145-9.928-16.603L69.089 83.2ZM166.042 83.2h-19.963L123.6 45.16l9.901-16.684L166.042 83.2Z" fill="#373739"/><path d="M32.132 47.806H62.21l.08-10.907-30.106-.027-.053 10.934ZM11.982 4.907C18.35.614 24.158 1.262 31.41 1.262h31.015l-.133 15.902H25.737c-3.105.027-5.647.729-7.226 3.563-1.07 1.944-.695 4.563-.695 6.67l-.027 5.803H2v-9.989c0-.675.08-1.404.16-2.16.402-6.479 4.603-12.634 9.822-16.144ZM11.982 79.798c6.369 4.293 12.176 3.645 19.428 3.645h31.015l-.133-15.902H25.737c-3.105-.027-5.647-.729-7.226-3.563-1.07-1.944-.695-4.563-.695-6.669l-.027-5.804H2v9.989c0 .675.08 1.404.16 2.16.402 6.452 4.603 12.607 9.822 16.144Z" fill="#FA9F34"/></g><path d="M10.886 93.192v1.764H4.032v4.99h6.653v1.763H4.032v6.527h6.854V110H2.167V93.192h8.72Zm4.421 0h1.865v15.044h4.637V110h-6.502V93.192Zm18.734 0v1.764h-6.855v4.99h6.653v1.763h-6.653v6.527h6.855V110h-8.72V93.192h8.72ZM39.797 110h-1.915l2.797-17.74 6.451 14.187 6.577-14.213L56.328 110h-1.915l-1.588-11.693-5.72 12.399-5.645-12.399L39.797 110Zm30.121-16.808v1.764h-6.854v4.99h6.652v1.763h-6.652v6.527h6.854V110h-8.72V93.192h8.72ZM76.203 110H74.34V92.486l13.104 13.734V93.192h1.864v17.564L76.203 97.022V110Zm26.627-15.044h-4.082V110h-1.865V94.956h-4.082v-1.764h10.029v1.764ZM116.263 110l-1.966-4.738h-7.157L105.124 110h-2.066l7.736-17.615L118.329 110h-2.066Zm-8.392-6.502h5.695l-2.822-6.728-2.873 6.728Zm15.676-10.306v10.306c0 .639.009 1.134.025 1.487.034.353.152.79.353 1.311.219.504.538.932.958 1.285.756.638 1.68.957 2.772.957 1.092 0 2.016-.319 2.772-.957.42-.353.731-.781.932-1.285.219-.521.336-.958.353-1.311.034-.353.05-.848.05-1.487V93.192h1.865v10.81c0 1.714-.353 3.058-1.058 4.032-.521.706-1.21 1.26-2.067 1.664-.84.403-1.789.604-2.847.604-1.059 0-2.016-.201-2.873-.604a5.386 5.386 0 0 1-2.041-1.664c-.706-.974-1.059-2.318-1.059-4.032v-10.81h1.865Zm23.625 1.764h-4.083V110h-1.864V94.956h-4.083v-1.764h10.03v1.764Zm16.647 12.852c-1.68 1.663-3.746 2.494-6.199 2.494s-4.527-.831-6.224-2.494c-1.68-1.664-2.52-3.73-2.52-6.2 0-2.486.848-4.552 2.545-6.199 1.697-1.663 3.763-2.495 6.199-2.495s4.503.832 6.199 2.495c1.697 1.647 2.546 3.713 2.546 6.199 0 2.47-.849 4.536-2.546 6.2Zm-1.36-11.114c-1.328-1.344-2.94-2.016-4.839-2.016-1.898 0-3.511.672-4.838 2.016-1.327 1.344-1.991 2.982-1.991 4.914 0 1.932.664 3.57 1.991 4.914 1.327 1.344 2.94 2.016 4.838 2.016 1.899 0 3.511-.672 4.839-2.016 1.327-1.344 1.99-2.982 1.99-4.914 0-1.932-.663-3.57-1.99-4.914Z" fill="#000"/><defs><clipPath id="a"><path fill="#fff" transform="translate(2 .966)" d="M0 0h163.8v82.23H0z"/></clipPath></defs></svg>