<svg class="logo" width="79" height="51" viewBox="0 0 79 51" fill="none" xmlns="http://www.w3.org/2000/svg">
    <path class="logo__secondary" fill-rule="evenodd" clip-rule="evenodd" d="M32.4634 38.9378H42.0459L60.5547 7.99274L55.7895 0.105957L32.4634 38.9378Z" fill="white"/>
    <path class="logo__secondary" fill-rule="evenodd" clip-rule="evenodd" d="M79.0002 38.9378H69.4184L58.6284 20.8683L63.3814 12.9429L79.0002 38.9378Z" fill="white"/>
    <path class="logo__primary" fill-rule="evenodd" clip-rule="evenodd" d="M14.7251 22.1255H29.1626L29.2011 16.9446L14.7508 16.9318L14.7251 22.1255Z" fill="#FFA500"/>
    <path class="logo__primary" fill-rule="evenodd" clip-rule="evenodd" d="M5.05325 1.7478C8.11031 -0.291261 10.8977 0.0165539 14.3786 0.0165539H29.2656L29.2015 7.57006H11.6555C10.1655 7.58291 8.94531 7.91627 8.18745 9.26282C7.6737 10.1862 7.85351 11.4302 7.85351 12.4305L7.84063 15.1876H0.262207V10.4427C0.262207 10.1221 0.300816 9.77579 0.339348 9.41669C0.532021 6.33886 2.54855 3.41494 5.05325 1.7478Z" fill="#FFA500"/>
    <path class="logo__primary" fill-rule="evenodd" clip-rule="evenodd" d="M5.05325 37.3223C8.11031 39.3614 10.8977 39.0539 14.3786 39.0539H29.2656L29.2015 31.5002H11.6555C10.1655 31.4874 8.94531 31.1539 8.18745 29.8074C7.6737 28.884 7.85351 27.6401 7.85351 26.6398L7.84063 23.8826H0.262207V28.6276C0.262207 28.9482 0.300816 29.2944 0.339348 29.6535C0.532021 32.7185 2.54855 35.6424 5.05325 37.3223Z" fill="#FFA500"/>
    <path class="logo__secondary" d="M3.24049 43.9763V44.966H1.13855V46.2827H3.15291V47.2724H1.13855V48.8806H3.24049V49.8703H0V43.9763H3.24049ZM6.62191 43.9763H7.76049V48.8806H9.56465V49.8703H6.62191V43.9763ZM15.8685 43.9763V44.966H13.7666V46.2827H15.781V47.2724H13.7666V48.8806H15.8685V49.8703H12.628V43.9763H15.8685ZM18.9522 49.8703L20.0382 43.8703H20.8264L22.4117 47.723L24.0669 43.8703H24.8552L25.8361 49.8703H24.68L24.1545 46.2385L22.5518 49.9498H22.2365L20.7038 46.2385L20.1083 49.8703H18.9522ZM32.3881 43.9763V44.966H30.2862V46.2827H32.3005V47.2724H30.2862V48.8806H32.3881V49.8703H29.1476V43.9763H32.3881ZM36.908 49.8703H35.7695V43.8438H36.5577L40.1134 47.9439V43.9763H41.252V49.9852H40.4638L36.908 45.885V49.8703ZM48.0161 44.966H46.7024V49.8703H45.5639V44.966H44.2502V43.9763H48.0161V44.966ZM54.6489 49.8703L54.1322 48.6332H51.7763L51.2595 49.8703H50.0247L52.5557 43.8526H53.414L55.875 49.8703H54.6489ZM52.1353 47.6965H53.7994L52.9761 45.5757L52.1353 47.6965ZM58.8342 43.9763H59.9727V47.6788C59.9727 48.05 60.0661 48.3416 60.253 48.5537C60.4749 48.8246 60.7843 48.9601 61.1813 48.9601C61.5784 48.9601 61.8878 48.8246 62.1097 48.5537C62.2965 48.3416 62.39 48.05 62.39 47.6788V43.9763H63.5285V47.5816C63.5285 48.2532 63.3825 48.7775 63.0906 49.1545C62.8862 49.4255 62.6118 49.6347 62.2673 49.7819C61.9287 49.9292 61.5667 50.0029 61.1813 50.0029C60.796 50.0029 60.4311 49.9292 60.0866 49.7819C59.7479 49.6347 59.4764 49.4255 59.2721 49.1545C58.9801 48.7775 58.8342 48.2532 58.8342 47.5816V43.9763ZM70.2937 44.966H68.98V49.8703H67.8415V44.966H66.5278V43.9763H70.2937V44.966ZM73.6313 44.7097C74.2152 44.1324 74.9655 43.8438 75.8821 43.8438C76.7988 43.8438 77.5462 44.1324 78.1242 44.7097C78.7081 45.2871 79 46.0264 79 46.9277C79 47.8291 78.7081 48.5684 78.1242 49.1457C77.5462 49.7171 76.7988 50.0029 75.8821 50.0029C74.9655 50.0029 74.2152 49.7171 73.6313 49.1457C73.0533 48.5684 72.7643 47.8291 72.7643 46.9277C72.7643 46.0264 73.0533 45.2871 73.6313 44.7097ZM74.4808 48.3946C74.8428 48.7716 75.3099 48.9601 75.8821 48.9601C76.4543 48.9601 76.9214 48.7716 77.2834 48.3946C77.6454 48.0117 77.8264 47.5227 77.8264 46.9277C77.8264 46.3327 77.6425 45.8438 77.2747 45.4608C76.9127 45.0779 76.4485 44.8865 75.8821 44.8865C75.3158 44.8865 74.8487 45.0779 74.4808 45.4608C74.1188 45.8438 73.9378 46.3327 73.9378 46.9277C73.9378 47.5227 74.1188 48.0117 74.4808 48.3946Z" fill="white"/>
</svg>
