<svg width="216" height="140" fill="none" xmlns="http://www.w3.org/2000/svg"><path fill-rule="evenodd" clip-rule="evenodd" d="M88.305 105.057h25.534l49.32-82.283-12.698-20.97-62.156 103.253ZM212.308 105.057h-25.532L158.024 57.01l12.665-21.073 41.619 69.12Z" fill="#323232"/><path fill-rule="evenodd" clip-rule="evenodd" d="M41.036 60.353h38.471l.103-13.776-38.505-.035-.069 13.81ZM15.264 6.168C23.41.747 30.837 1.565 40.113 1.565h39.67L79.61 21.65H32.857c-3.97.034-7.222.92-9.241 4.5-1.37 2.456-.89 5.764-.89 8.424l-.034 7.33H2.498V29.289c0-.852.102-1.773.205-2.728C3.217 18.376 8.59 10.6 15.264 6.168ZM15.264 100.761c8.146 5.421 15.573 4.604 24.849 4.604h39.67L79.61 85.28H32.857c-3.97-.034-7.222-.921-9.241-4.502-1.37-2.455-.89-5.762-.89-8.422l-.034-7.332H2.498v12.617c0 .853.102 1.773.205 2.728.514 8.15 5.887 15.925 12.561 20.392Z" fill="#FA9F34"/><path d="M10.557 118.454v2.631h-5.68v3.501h5.443v2.632H4.876v4.276h5.681v2.632H1.8v-15.672h8.758Zm9.14 0h3.077v13.04h4.876v2.632h-7.953v-15.672Zm24.991 0v2.631h-5.681v3.501h5.444v2.632h-5.444v4.276h5.681v2.632H35.93v-15.672h8.758Zm8.335 15.672 2.935-15.954h2.13l4.285 10.244 4.474-10.244h2.13l2.651 15.954h-3.124l-1.42-9.657-4.332 9.868h-.853l-4.142-9.868-1.61 9.657h-3.124Zm36.314-15.672v2.631h-5.681v3.501H89.1v2.632h-5.444v4.276h5.681v2.632H80.58v-15.672h8.758Zm12.216 15.672h-3.077v-16.025h2.131l9.61 10.902v-10.549h3.077v15.977h-2.13l-9.611-10.902v10.597Zm30.023-13.041h-3.55v13.041h-3.078v-13.041h-3.55v-2.631h10.178v2.631Zm17.927 13.041-1.396-3.29h-6.368l-1.396 3.29h-3.338l6.841-16.001h2.32l6.651 16.001h-3.314Zm-6.793-5.78h4.497l-2.225-5.64-2.272 5.64Zm18.105-9.892h3.078v9.845c0 .986.252 1.762.757 2.326.6.72 1.436 1.081 2.509 1.081s1.91-.361 2.509-1.081c.505-.564.758-1.34.758-2.326v-9.845h3.077v9.586c0 1.786-.394 3.18-1.184 4.182-.552.721-1.294 1.277-2.225 1.669a7.39 7.39 0 0 1-2.935.587 7.567 7.567 0 0 1-2.959-.587c-.915-.392-1.649-.948-2.201-1.669-.789-1.002-1.184-2.396-1.184-4.182v-9.586Zm30.973 2.631h-3.551v13.041h-3.077v-13.041h-3.551v-2.631h10.179v2.631Zm9.021-.681c1.578-1.535 3.606-2.303 6.083-2.303 2.478 0 4.498.768 6.06 2.303 1.578 1.535 2.367 3.501 2.367 5.897 0 2.397-.789 4.363-2.367 5.898-1.562 1.519-3.582 2.279-6.06 2.279-2.477 0-4.505-.76-6.083-2.279-1.562-1.535-2.344-3.501-2.344-5.898 0-2.396.782-4.362 2.344-5.897Zm2.296 9.798c.978 1.002 2.241 1.504 3.787 1.504 1.547 0 2.809-.502 3.788-1.504.978-1.018 1.467-2.319 1.467-3.901 0-1.582-.497-2.882-1.491-3.9-.978-1.018-2.233-1.527-3.764-1.527-1.53 0-2.793.509-3.787 1.527-.979 1.018-1.468 2.318-1.468 3.9 0 1.582.489 2.883 1.468 3.901Z" fill="#323232"/></svg>