<svg width="48" height="48" viewBox="0 0 48 48" fill="none" xmlns="http://www.w3.org/2000/svg">
<path fill-rule="evenodd" clip-rule="evenodd" d="M41.3333 48C45.016 48 48 45.016 48 41.3333V6.66667C48 2.984 45.016 0 41.3333 0H6.66667C2.98533 0 0 2.984 0 6.66667V41.3333C0 45.016 2.98533 48 6.66667 48H41.3333ZM39.7483 15.8125C39.7561 15.975 39.7273 16.157 39.6669 16.3533C39.3013 18.1103 36.0793 22.7853 35.1045 24.1998C34.9245 24.4609 34.8211 24.6109 34.8265 24.6109C34.6375 24.9307 34.5115 25.1595 34.4997 25.4C34.4878 25.6288 34.581 25.868 34.8265 26.2073C35.1926 26.7273 35.9893 27.6841 36.7965 28.65C38.2534 30.3946 39.4215 32.225 39.6761 32.9738C39.7299 33.1779 39.7535 33.3612 39.7496 33.525C39.7312 34.1685 39.2731 34.5 38.4752 34.5H35.0391C34.134 34.5 33.6589 33.8831 32.6907 32.6257C32.266 32.0743 31.7466 31.3997 31.0544 30.6C29.0857 28.325 28.0659 28 27.5658 28C26.8649 28 26.6248 28.1729 26.6234 29.2142V33.0778C26.6234 33.9449 26.3977 34.5 24.1954 34.5C20.5598 34.5 16.453 32.0625 13.3359 27.8375C9.03749 22.0109 8.25 16.9435 8.25 16.0062C8.25 15.4862 8.41669 15 9.41811 15H12.887C13.7546 15 14.0879 15.3822 14.4213 16.3884C15.9608 21.5 18.2603 25.4 19.4284 25.4C19.8615 25.4 20.0623 25.192 20.0623 24.048V19.3381C19.9798 17.8393 19.4997 17.1859 19.1439 16.7017C18.9229 16.401 18.7499 16.1655 18.7499 15.8333C18.7499 15.416 19.0281 15 19.5623 15H25.664C26.3977 15 26.6248 15.416 26.6248 16.3182V23.0587C26.6248 23.8218 27.2114 24.1 27.4437 24.1C27.4541 24.1 27.4643 24.1 27.4746 24.1C27.8965 24.1005 28.3028 24.101 29.0843 23.2875C31.5531 20.408 33.6951 16.0413 33.6951 16.0413C33.9287 15.52 34.329 15 35.1966 15H38.6327C39.4018 15 39.7286 15.3419 39.7483 15.8125Z" fill="white"/>
</svg>
