<svg width="48" height="48" viewBox="0 0 48 48" fill="none" xmlns="http://www.w3.org/2000/svg">
<path d="M44.1601 11.2518C37.0448 0.282352 22.5177 -2.97882 11.2519 3.84C0.282446 10.6588 -3.2752 25.4824 3.84009 36.4518L4.43304 37.3412L2.06127 46.2353L10.9554 43.8635L11.8448 44.4565C15.6989 46.5318 19.8495 47.7176 24.0001 47.7176C28.4472 47.7176 32.8942 46.5318 36.7483 44.16C47.7177 37.0447 50.9789 22.5176 44.1601 11.2518V11.2518ZM37.9342 34.08C36.7483 35.8588 35.266 37.0447 33.1907 37.3412C32.0048 37.3412 30.5224 37.9341 24.593 35.5624C19.553 33.1906 15.4024 29.3365 12.4377 24.8894C10.6589 22.8141 9.76951 20.1459 9.47303 17.4776C9.47303 15.1059 10.3624 13.0306 11.8448 11.5482C12.4377 10.9553 13.0307 10.6588 13.6236 10.6588H15.106C15.6989 10.6588 16.2919 10.6588 16.5883 11.8447C17.1813 13.3271 18.6636 16.8847 18.6636 17.1812C18.9601 17.4776 18.9601 18.0706 18.6636 18.3671C18.9601 18.96 18.6636 19.5529 18.3672 19.8494C18.0707 20.1459 17.7742 20.7388 17.4777 21.0353C16.8848 21.3318 16.5883 21.9247 16.8848 22.5176C18.0707 24.2965 19.553 26.0753 21.0354 27.5576C22.8142 29.04 24.593 30.2259 26.6683 31.1153C27.2613 31.4118 27.8542 31.4118 28.1507 30.8188C28.4472 30.2259 29.9295 28.7435 30.5224 28.1506C31.1154 27.5576 31.4119 27.5576 32.0048 27.8541L36.7483 30.2259C37.3413 30.5224 37.9342 30.8188 38.2307 31.1153C38.5272 32.0047 38.5272 33.1906 37.9342 34.08V34.08Z" fill="white"/>
</svg>
